# xmcd
#
# Track frame offsets:
#	150
#	988
#	10242
#	18526
#	26655
#	34419
#	41568
#	52248
#	58445
#	68735
#	74887
#	79825
#	85389
#	91963
#	101679
#	110025
#	116745
#	125017
#	131738
#	138621
#	145901
#	154368
#	163096
#	173074
#	180698
#	188274
#	197749
#	206587
#	214503
#	227041
#	236698
#	244786
#	253216
#	264312
#	274437
#	283156
#	291945
#	301016
#	311301
#	320011
#
# Disc length: 4410 seconds
#
# Revision: 1
# Processed by: cddbd v1.5.2PL0 Copyright (c) Steve Scherf et al.
# Submitted via: dBpowerAMP V4.0
#
DISCID=66113828
DTITLE=diverse - Studio 33 - Oberbayern 2007
DYEAR=2007
DGENRE=blues
TTITLE0=Intro
TTITLE1=Manian - Turn The Tide
TTITLE2=Liz Kay - When Love Becomes A Lie
TTITLE3=Cascada - Everytime We Touch
TTITLE4=Jan Wayne - Piece Of My Heart
TTITLE5=Lazard - Your Heart Keeps Burning
TTITLE6=Yvie - Brave Maedchen, boese Maedchen
TTITLE7=The Reaj Booty Babes - 4 Ever
TTITLE8=Liberos - Ich kann nicht treu sein
TTITLE9=Kruemel - Nur die Harten komm in Garten
TTITLE10=Scooter - Behind The Cow
TTITLE11=Prezisio and Marvin - Survival
TTITLE12=Magic Lauster - Ich schmuse auch danach
TTITLE13=Willi Herren - 1000 und eine Nacht
TTITLE14=Juergen Drews and Markus Becker - Aloha  Heja He
TTITLE15=Juergen - Ich mach ein glueckliches Maedchen aus dir
TTITLE16=Schlagermafia - Ich bin nichts and ich kann nichts
TTITLE17=Peter Wackel - Heimweh nach der Insel
TTITLE18=Moehre - California Dreamboy
TTITLE19=Norman - Geile Stimmung
TTITLE20=Micki Krause - Laudatio si
TTITLE21=Michael Wendler - Prinzessin
TTITLE22=Sina - Heut' Abend hab' ich Kopfweh
TTITLE23=Peter Wackel Ü30
TTITLE24=Libero-5 - Ich bin dein Stier
TTITLE25=Yoomili - Gimme, Gimme, Gimme 
TTITLE26=Kim Sozzi - Break Up
TTITLE27=Crew 7 - Eye Of The Tiger
TTITLE28=Antonia - Keine Suende
TTITLE29=DJ Oetzi jn. - I Am The Musicman
TTITLE30=2-4 Grooves - The Way I Do
TTITLE31=Pit Bailey feat. Michael C Kent - Shes Like The Wind
TTITLE32=Arnold Palmer vs. Moti Special - Cold days
TTITLE33=The Springlove - Porque Te Vas
TTITLE34=Siggi Rose - Halt du die Ohren steif
TTITLE35=Bob Sinclair - Rock This Party (Everybody Dance Now)
TTITLE36=Dutch Maffia - Break My Stride
TTITLE37=Nic P feat. DJ Oetzi - Ein Stern
TTITLE38=A.Schmidt feat. M. Faye - Beim ersten Mal tat's noch weh
TTITLE39=Holly Dolly - Dolly Song (Leva's Polka)
EXTD=
EXTT0=
EXTT1=
EXTT2=
EXTT3=
EXTT4=
EXTT5=
EXTT6=
EXTT7=
EXTT8=
EXTT9=
EXTT10=
EXTT11=
EXTT12=
EXTT13=
EXTT14=
EXTT15=
EXTT16=
EXTT17=
EXTT18=
EXTT19=
EXTT20=
EXTT21=
EXTT22=
EXTT23=
EXTT24=
EXTT25=
EXTT26=
EXTT27=
EXTT28=
EXTT29=
EXTT30=
EXTT31=
EXTT32=
EXTT33=
EXTT34=
EXTT35=
EXTT36=
EXTT37=
EXTT38=
EXTT39=
PLAYORDER=
